<svg xmlns="http://www.w3.org/2000/svg" xmlns:xlink="http://www.w3.org/1999/xlink" width="500" zoomAndPan="magnify" viewBox="0 0 375 374.999991" height="500" preserveAspectRatio="xMidYMid meet" version="1.0"><defs><clipPath id="17719fef35"><path d="M 81 101 L 277 101 L 277 297 L 81 297 Z M 81 101 " clip-rule="nonzero"/></clipPath><clipPath id="1ce817bfc2"><path d="M 79.785156 95.382812 L 288.792969 68.328125 L 316.136719 279.566406 L 107.132812 306.621094 Z M 79.785156 95.382812 " clip-rule="nonzero"/></clipPath><clipPath id="74f59b8270"><path d="M 79.785156 95.382812 L 288.792969 68.328125 L 316.136719 279.566406 L 107.132812 306.621094 Z M 79.785156 95.382812 " clip-rule="nonzero"/></clipPath><clipPath id="0bf05c77f5"><path d="M 224 75 L 296 75 L 296 236 L 224 236 Z M 224 75 " clip-rule="nonzero"/></clipPath><clipPath id="28c9c3c0ba"><path d="M 79.785156 95.382812 L 288.792969 68.328125 L 316.136719 279.566406 L 107.132812 306.621094 Z M 79.785156 95.382812 " clip-rule="nonzero"/></clipPath><clipPath id="6d6f2de153"><path d="M 79.785156 95.382812 L 288.792969 68.328125 L 316.136719 279.566406 L 107.132812 306.621094 Z M 79.785156 95.382812 " clip-rule="nonzero"/></clipPath><clipPath id="d70fa16454"><path d="M 205 78 L 215 78 L 215 99 L 205 99 Z M 205 78 " clip-rule="nonzero"/></clipPath><clipPath id="d15fe699eb"><path d="M 79.785156 95.382812 L 288.792969 68.328125 L 316.136719 279.566406 L 107.132812 306.621094 Z M 79.785156 95.382812 " clip-rule="nonzero"/></clipPath><clipPath id="85c042598f"><path d="M 79.785156 95.382812 L 288.792969 68.328125 L 316.136719 279.566406 L 107.132812 306.621094 Z M 79.785156 95.382812 " clip-rule="nonzero"/></clipPath><clipPath id="8a53c27e7c"><path d="M 179 85 L 197 85 L 197 102 L 179 102 Z M 179 85 " clip-rule="nonzero"/></clipPath><clipPath id="ec1902435d"><path d="M 79.785156 95.382812 L 288.792969 68.328125 L 316.136719 279.566406 L 107.132812 306.621094 Z M 79.785156 95.382812 " clip-rule="nonzero"/></clipPath><clipPath id="55dae7c758"><path d="M 79.785156 95.382812 L 288.792969 68.328125 L 316.136719 279.566406 L 107.132812 306.621094 Z M 79.785156 95.382812 " clip-rule="nonzero"/></clipPath><clipPath id="e425e3de94"><path d="M 225 78 L 240 78 L 240 97 L 225 97 Z M 225 78 " clip-rule="nonzero"/></clipPath><clipPath id="265aa7e050"><path d="M 79.785156 95.382812 L 288.792969 68.328125 L 316.136719 279.566406 L 107.132812 306.621094 Z M 79.785156 95.382812 " clip-rule="nonzero"/></clipPath><clipPath id="0addb74e69"><path d="M 79.785156 95.382812 L 288.792969 68.328125 L 316.136719 279.566406 L 107.132812 306.621094 Z M 79.785156 95.382812 " clip-rule="nonzero"/></clipPath></defs><rect x="-37.5" width="450" fill="#ffffff" y="-37.499999" height="449.999989" fill-opacity="1"/><rect x="-37.5" width="450" fill="#ffffff" y="-37.499999" height="449.999989" fill-opacity="1"/><g clip-path="url(#17719fef35)"><g clip-path="url(#1ce817bfc2)"><g clip-path="url(#74f59b8270)"><path fill="#1c3c80" d="M 261.113281 256.804688 L 230.742188 253.136719 C 224.246094 252.355469 222.269531 250.941406 220.773438 242.605469 C 218.769531 228.722656 219.621094 211.730469 220.523438 193.742188 C 221.289062 178.414062 222.082031 162.566406 221.300781 146.753906 C 220.988281 127.917969 216.484375 106.160156 184.195312 105.085938 L 84.933594 101.207031 C 83.03125 101.125 81.4375 102.609375 81.363281 104.503906 C 81.292969 106.398438 82.769531 107.996094 84.664062 108.070312 L 183.945312 111.953125 C 210.242188 112.828125 214.136719 129.25 214.433594 146.980469 C 215.199219 162.5625 214.417969 178.238281 213.65625 193.398438 C 212.742188 211.726562 211.875 229.042969 213.988281 243.703125 C 215.957031 254.660156 219.976562 258.761719 229.921875 259.960938 L 260.289062 263.628906 C 266.136719 264.332031 269.308594 268.84375 269.324219 272.730469 C 269.339844 276.542969 266.585938 279.085938 261.773438 279.707031 L 187.769531 289.289062 C 182.425781 289.980469 178.960938 287.707031 177.75 282.710938 C 176.855469 279.066406 177.605469 275.453125 178.550781 270.871094 C 179.65625 265.53125 181.027344 258.882812 179.902344 250.257812 C 178.679688 240.792969 176.71875 231.621094 174.828125 222.75 C 170.96875 204.667969 167.324219 187.589844 169.367188 168.136719 C 169.363281 168.128906 169.363281 168.125 169.363281 168.117188 C 169.363281 168.109375 169.367188 168.101562 169.371094 168.09375 C 169.730469 164.191406 171.09375 160.457031 173.542969 156.679688 C 174.574219 155.085938 174.121094 152.957031 172.523438 151.925781 C 170.933594 150.894531 168.804688 151.355469 167.773438 152.941406 C 165.273438 156.796875 163.71875 160.675781 162.960938 164.695312 L 93.734375 173.660156 C 91.851562 173.902344 90.523438 175.625 90.769531 177.507812 C 91.011719 179.390625 92.734375 180.71875 94.617188 180.472656 L 162.164062 171.730469 C 160.925781 190.550781 164.570312 207.628906 168.105469 224.183594 C 169.96875 232.917969 171.898438 241.953125 173.085938 251.144531 C 174.066406 258.625 172.871094 264.390625 171.820312 269.480469 C 170.789062 274.476562 169.8125 279.195312 171.070312 284.335938 C 173.109375 292.734375 179.847656 297.242188 188.652344 296.105469 L 262.652344 286.523438 C 272.6875 285.226562 276.21875 278.265625 276.195312 272.703125 C 276.167969 265.878906 270.875 257.984375 261.113281 256.804688 Z M 261.113281 256.804688 " fill-opacity="1" fill-rule="nonzero"/></g></g></g><g clip-path="url(#0bf05c77f5)"><g clip-path="url(#28c9c3c0ba)"><g clip-path="url(#6d6f2de153)"><path fill="#1c3c80" d="M 279.515625 75.964844 C 277.855469 76.179688 276.222656 76.765625 274.8125 77.617188 L 229.714844 101.6875 C 225.640625 104.046875 223.554688 108.242188 224.140625 112.949219 C 224.769531 117.625 227.855469 121.148438 232.511719 122.40625 L 264.464844 129.984375 L 265.078125 134.734375 C 261.953125 136.496094 260.035156 139.980469 260.503906 143.550781 L 264.253906 221.613281 C 264.402344 225.441406 266.175781 228.980469 269.25 231.574219 C 272.632812 234.429688 277.230469 235.796875 281.554688 235.238281 C 285.875 234.679688 289.972656 232.183594 292.519531 228.566406 C 294.828125 225.277344 295.648438 221.402344 294.828125 217.683594 L 278.605469 141.488281 C 278.117188 137.710938 275.367188 134.777344 271.894531 133.855469 L 271.613281 131.683594 L 281.960938 134.136719 C 283.714844 134.648438 285.441406 134.796875 287.101562 134.582031 C 292.828125 133.84375 296.433594 129 295.664062 123.070312 L 290.726562 84.917969 C 289.957031 78.988281 285.242188 75.222656 279.515625 75.964844 Z M 288.109375 219.136719 C 288.628906 221.496094 287.734375 223.417969 286.894531 224.617188 C 285.464844 226.652344 283.078125 228.113281 280.671875 228.425781 C 278.265625 228.734375 275.585938 227.933594 273.683594 226.324219 C 272.566406 225.382812 271.214844 223.75 271.121094 221.3125 L 267.347656 142.945312 C 267.191406 141.738281 268.078125 140.589844 269.28125 140.433594 C 270.484375 140.277344 271.636719 141.164062 271.835938 142.644531 Z M 234.199219 115.746094 C 232.304688 115.234375 231.214844 113.984375 230.953125 112.070312 C 230.710938 110.113281 231.453125 108.621094 233.054688 107.691406 L 259.734375 93.449219 L 263.519531 122.703125 Z M 288.847656 123.953125 C 289.234375 126.886719 287.441406 128.566406 283.71875 127.496094 L 270.671875 124.402344 L 266.214844 89.992188 L 278.199219 83.59375 C 278.945312 83.144531 279.683594 82.871094 280.394531 82.777344 C 282.320312 82.53125 283.632812 83.660156 283.910156 85.796875 Z M 288.847656 123.953125 " fill-opacity="1" fill-rule="nonzero"/></g></g></g><g clip-path="url(#d70fa16454)"><g clip-path="url(#d15fe699eb)"><g clip-path="url(#85c042598f)"><path fill="#1c3c80" d="M 211.476562 98.722656 C 213.359375 98.480469 214.6875 96.757812 214.445312 94.875 L 212.730469 81.636719 C 212.488281 79.757812 210.765625 78.429688 208.882812 78.671875 C 207 78.914062 205.671875 80.636719 205.914062 82.519531 L 207.628906 95.757812 C 207.871094 97.636719 209.59375 98.96875 211.476562 98.722656 Z M 211.476562 98.722656 " fill-opacity="1" fill-rule="nonzero"/></g></g></g><g clip-path="url(#8a53c27e7c)"><g clip-path="url(#ec1902435d)"><g clip-path="url(#55dae7c758)"><path fill="#1c3c80" d="M 191.148438 100.226562 C 191.914062 100.875 192.882812 101.128906 193.808594 101.011719 C 194.628906 100.902344 195.414062 100.503906 195.988281 99.824219 C 197.214844 98.375 197.035156 96.207031 195.585938 94.980469 L 185.402344 86.363281 C 183.957031 85.136719 181.785156 85.320312 180.5625 86.765625 C 179.335938 88.214844 179.511719 90.382812 180.964844 91.609375 Z M 191.148438 100.226562 " fill-opacity="1" fill-rule="nonzero"/></g></g></g><g clip-path="url(#e425e3de94)"><g clip-path="url(#265aa7e050)"><g clip-path="url(#0addb74e69)"><path fill="#1c3c80" d="M 229.128906 96.4375 C 230.050781 96.320312 230.921875 95.824219 231.5 95.003906 L 239.160156 84.074219 C 240.25 82.523438 239.871094 80.378906 238.320312 79.289062 C 236.765625 78.203125 234.628906 78.574219 233.535156 80.132812 L 225.875 91.058594 C 224.785156 92.613281 225.160156 94.753906 226.714844 95.84375 C 227.445312 96.355469 228.304688 96.546875 229.128906 96.4375 Z M 229.128906 96.4375 " fill-opacity="1" fill-rule="nonzero"/></g></g></g></svg>