<svg xmlns="http://www.w3.org/2000/svg" xmlns:xlink="http://www.w3.org/1999/xlink" width="500" zoomAndPan="magnify" viewBox="0 0 375 374.999991" height="500" preserveAspectRatio="xMidYMid meet" version="1.0"><rect x="-37.5" width="450" fill="#ffffff" y="-37.499999" height="449.999989" fill-opacity="1"/><rect x="-37.5" width="450" fill="#ffffff" y="-37.499999" height="449.999989" fill-opacity="1"/><path fill="#1c3c80" d="M 89.136719 166.847656 C 90.390625 166.085938 91.402344 165.460938 92.691406 164.675781 C 92.253906 163.765625 91.828125 162.878906 91.402344 161.992188 C 80.441406 139.246094 74.605469 115.363281 75.46875 90.003906 C 75.691406 83.429688 76.652344 76.992188 78.960938 70.800781 C 82.761719 60.589844 89.925781 53.910156 100.230469 50.441406 C 101.613281 49.976562 102.894531 48.914062 103.960938 47.851562 C 110.472656 41.367188 118.394531 39.207031 127.296875 40.265625 C 130.058594 40.597656 132.011719 42.554688 132.136719 45.339844 C 132.382812 50.636719 132.441406 55.957031 132.125 61.242188 C 131.9375 64.367188 129.980469 66.046875 126.796875 66.464844 C 119.4375 67.429688 112.699219 65.554688 106.703125 61.28125 C 105.191406 60.203125 104.027344 60.121094 102.386719 60.714844 C 94.09375 63.738281 89.371094 69.804688 87.378906 78.171875 C 85.050781 87.9375 85.335938 97.84375 86.367188 107.710938 C 88.199219 125.238281 93.132812 141.902344 100.902344 157.722656 C 101.230469 158.382812 101.632812 159.003906 102.089844 159.796875 C 103.234375 159.25 104.296875 158.753906 105.550781 158.160156 C 106.054688 159 106.542969 159.765625 106.984375 160.550781 C 112.21875 169.910156 118.539062 178.429688 127.238281 184.84375 C 137.648438 192.515625 149.976562 193.410156 161.390625 186.074219 C 170.707031 180.078125 177.097656 171.609375 182.636719 162.3125 C 183.445312 160.964844 184.207031 159.589844 185.019531 158.179688 C 186.28125 158.742188 187.371094 159.222656 188.863281 159.882812 C 190.976562 155.003906 193.203125 150.289062 195.074219 145.441406 C 201.726562 128.195312 205.480469 110.355469 204.808594 91.816406 C 204.605469 86.191406 203.664062 80.472656 202.199219 75.027344 C 200.253906 67.804688 195.113281 63.164062 188.050781 60.640625 C 186.484375 60.078125 185.40625 60.234375 184 61.246094 C 178.179688 65.40625 171.636719 67.324219 164.464844 66.570312 C 160.628906 66.167969 158.695312 64.550781 158.425781 60.773438 C 158.070312 55.769531 158.070312 50.703125 158.453125 45.707031 C 158.742188 42.007812 160.910156 40.210938 164.617188 40.050781 C 173.480469 39.667969 181.46875 41.695312 187.457031 48.890625 C 187.949219 49.480469 188.761719 49.925781 189.511719 50.15625 C 204.003906 54.5625 211.535156 64.882812 213.984375 79.292969 C 216.589844 94.609375 215.214844 109.824219 212.042969 124.914062 C 209.269531 138.132812 204.84375 150.785156 198.78125 162.863281 C 198.496094 163.4375 198.269531 164.042969 197.980469 164.710938 C 199.09375 165.371094 200.117188 165.984375 201.511719 166.8125 C 199.734375 169.914062 198.109375 173.023438 196.230469 175.976562 C 188.027344 188.871094 178.050781 199.957031 163.601562 205.949219 C 160.050781 207.421875 158.207031 209.019531 157.6875 213.011719 C 157.035156 218.019531 154.898438 222.667969 151.496094 226.601562 C 151.003906 227.167969 150.648438 228.082031 150.664062 228.828125 C 151.289062 254.121094 156.601562 278.078125 171.09375 299.335938 C 175.386719 305.625 180.597656 311.082031 186.921875 315.414062 C 201.175781 325.171875 217.449219 325.242188 231.757812 315.515625 C 239.867188 310.003906 245.996094 302.660156 251.015625 294.335938 C 259.289062 280.621094 263.953125 265.648438 266.414062 249.917969 C 266.453125 249.660156 266.371094 249.382812 266.339844 248.984375 C 265.472656 248.695312 264.605469 248.402344 263.734375 248.109375 C 251.222656 243.898438 243.714844 231.324219 246.089844 218.566406 C 248.476562 205.75 259.992188 196.644531 273.316406 197.039062 C 286.25 197.421875 297.148438 207.261719 298.722656 219.972656 C 300.332031 232.996094 292.351562 244.945312 279.554688 248.488281 C 277.71875 248.996094 276.894531 249.679688 276.5625 251.714844 C 273.695312 269.488281 268.164062 286.328125 258.386719 301.597656 C 253.828125 308.722656 248.433594 315.128906 241.925781 320.558594 C 221.988281 337.191406 197.472656 337.363281 177.382812 320.925781 C 165.300781 311.042969 157.242188 298.25 151.289062 284.027344 C 144.058594 266.761719 140.824219 248.660156 140.179688 230.019531 C 140.132812 228.671875 139.507812 227.140625 138.675781 226.070312 C 134.925781 221.273438 133.167969 215.726562 132.273438 209.847656 C 132.0625 208.464844 131.582031 207.769531 130.230469 207.308594 C 119.917969 203.742188 111.703125 197.203125 104.371094 189.253906 C 98.230469 182.597656 93.6875 174.945312 89.136719 166.847656 Z M 290.859375 223.394531 C 290.910156 213.195312 282.59375 204.929688 272.300781 204.941406 C 262.144531 204.953125 253.808594 213.144531 253.765625 223.15625 C 253.71875 233.335938 262.058594 241.613281 272.335938 241.597656 C 282.554688 241.574219 290.808594 233.457031 290.859375 223.394531 Z M 290.859375 223.394531 " fill-opacity="1" fill-rule="nonzero"/><path fill="#1c3c80" d="M 272.355469 234.105469 C 266.144531 234.105469 261.164062 229.207031 261.246094 223.171875 C 261.320312 217.25 266.269531 212.433594 272.292969 212.421875 C 278.449219 212.414062 283.433594 217.347656 283.378906 223.382812 C 283.328125 229.308594 278.390625 234.105469 272.355469 234.105469 Z M 272.355469 234.105469 " fill-opacity="1" fill-rule="nonzero"/></svg>